<svg width="17" height="19" viewBox="0 0 17 19" fill="none" xmlns="http://www.w3.org/2000/svg">
<path fill-rule="evenodd" clip-rule="evenodd" d="M5.40411 3.72495L6.00611 3.66888C6.4997 3.61464 10.0425 3.69471 10.808 3.69471C10.808 4.10698 10.7845 4.77928 10.9749 5.06845C11.4741 5.82668 12.6931 5.63409 12.7235 4.41757L12.6993 3.90635C12.6993 3.80212 12.7215 3.78929 12.7293 3.69471C13.113 3.69471 13.4891 3.62688 13.8081 3.72691C13.9692 3.77742 14.0673 3.84526 14.1781 3.95906C14.3101 4.09477 14.4706 4.16714 14.4706 4.26914V7.26219C14.0621 7.26219 13.7304 7.29445 13.2995 7.29222C13.0633 7.29099 12.9586 7.32437 12.7297 7.32305L3.12246 7.26219C2.73804 7.26219 2.23224 7.28001 1.9216 7.35289C1.88767 7.2062 1.83154 7.11388 1.83154 6.92962V4.90403C1.83154 4.08073 2.16013 3.68881 2.91164 3.69404C3.15655 3.69574 3.42607 3.63955 3.6028 3.72495C3.7162 3.96295 3.56347 4.66927 3.68312 4.97431C4.00151 5.78609 5.46413 5.68992 5.46413 4.57147C5.46413 4.36492 5.48144 3.89929 5.40409 3.72495H5.40411ZM3.63284 0.88306C3.63284 1.78655 3.74565 1.72992 3.28655 1.80412C3.05704 1.84121 2.69964 1.84215 2.45937 1.84787C2.13491 1.85561 2.43306 1.9419 2.14848 1.93253C2.00484 1.9278 1.92712 1.94923 1.79701 1.99712C0.764382 2.37721 0.000244141 3.36697 0.000244141 4.57147V15.3948C0.000244141 15.9521 0.220395 16.9442 0.597694 17.203L0.720653 17.3278C1.22523 18.1015 2.35592 18.2972 3.27259 18.2972H8.07602C8.30454 18.2972 8.46388 18.2834 8.64804 18.2686C8.9134 18.2472 8.99146 18.2828 9.19593 18.1854C9.86979 17.8643 9.86979 16.8253 9.19593 16.5043C9.01187 16.4166 8.92486 16.4352 8.6764 16.4228L2.55482 16.3897C2.41202 16.373 2.22388 16.2666 2.14348 16.1691C1.95109 15.9357 1.83156 15.6563 1.83156 15.2437V9.31802C1.83156 9.22519 1.85936 9.13662 1.95165 9.13662H14.3505C14.6151 9.13662 14.3485 9.71847 14.5615 10.1335C14.9995 10.9869 16.3019 10.6214 16.3019 9.80175V4.90404C16.3019 3.87493 16.1328 3.21187 15.4394 2.53769C15.3242 2.42569 15.1139 2.28034 14.9614 2.20276C14.755 2.09776 14.6187 2.04103 14.3845 1.96744C13.9183 1.82094 13.2944 1.79005 12.7294 1.79005C12.7294 1.57657 12.6574 0.726285 12.606 0.583991C12.4195 0.0676046 11.7982 -0.14074 11.4395 0.0995051C11.2579 0.221162 11.4219 0.176226 11.1983 0.157477C11.2695 0.31252 11.128 0.22423 10.9996 0.410915C10.7979 0.704277 10.808 1.39195 10.808 1.79005H6.00455C5.85254 1.79005 5.75774 1.82899 5.65073 1.81578C5.18161 1.75792 5.75711 0.810908 5.1728 0.239263C4.83605 -0.0901795 4.24221 -0.0561451 3.90997 0.255148C3.75012 0.404922 3.63286 0.582825 3.63286 0.883067L3.63284 0.88306Z" fill="#677294"/>
<path fill-rule="evenodd" clip-rule="evenodd" d="M3.63257 11.8575V13.6412C3.63257 14.5172 4.36002 14.6432 5.04289 14.6396C5.17582 14.6389 5.29483 14.6325 5.42189 14.6523C5.62609 14.6843 5.6064 14.6435 5.79313 14.6379C6.8438 14.6063 7.15739 14.5054 7.26729 13.7038C7.34708 13.1218 7.33275 11.7792 7.16173 11.4174C7.08869 11.2629 6.87417 11.0799 6.72544 11.0103C6.29372 10.8082 5.58371 10.8921 5.22391 10.8902C4.91988 10.8886 4.68969 10.88 4.4256 10.9328C3.95419 11.027 3.63257 11.3069 3.63257 11.8575Z" fill="#677294"/>
<path fill-rule="evenodd" clip-rule="evenodd" d="M12.5791 13.3086C12.5791 12.7172 13.1026 12.19 13.6899 12.19C14.2772 12.19 14.8007 12.7172 14.8007 13.3086C14.8007 13.9003 14.2748 14.4273 13.6899 14.4273C13.105 14.4273 12.5791 13.9003 12.5791 13.3086ZM11.6484 13.2179V13.3993C11.6484 14.4235 12.5828 15.3645 13.5998 15.3645H13.78C14.797 15.3645 15.7314 14.4235 15.7314 13.3993V13.2179C15.7314 12.1937 14.797 11.2528 13.78 11.2528H13.5998C12.5828 11.2528 11.6484 12.1937 11.6484 13.2179Z" fill="#677294"/>
<path d="M10.5676 17.753C10.5676 17.8929 10.5658 18.0176 10.5642 18.1285C10.5538 18.8514 10.5518 18.9925 11.108 18.9925C11.5493 18.9925 11.5221 18.5477 11.4931 18.0749C11.4603 17.5389 11.4252 16.9669 12.0687 16.9669H15.4911C16.1369 16.9669 16.1083 17.5411 16.0762 18.1883C16.0689 18.3337 16.0615 18.4827 16.0615 18.6297C16.0615 19.1336 16.8355 19.0197 16.9166 18.8862C17.0149 18.7242 17.0024 18.0848 16.9951 17.708C16.9935 17.6283 16.9922 17.5603 16.9922 17.5111C16.9922 16.9064 16.5673 16.3313 15.9456 16.1464C15.5029 16.0147 14.868 16.0323 14.2649 16.0491C14.0672 16.0545 13.8728 16.0599 13.6898 16.0599C13.5783 16.0599 13.4509 16.0578 13.314 16.0554C12.6862 16.0448 11.8578 16.0308 11.433 16.2058C10.8194 16.4587 10.5676 17.081 10.5676 17.753V17.753Z" fill="#677294"/>
<path d="M10.5676 17.753C10.5676 17.8929 10.5658 18.0176 10.5642 18.1285C10.5538 18.8514 10.5518 18.9925 11.108 18.9925C11.5493 18.9925 11.5221 18.5477 11.4931 18.0749C11.4603 17.5389 11.4252 16.9669 12.0687 16.9669H15.4911C16.1369 16.9669 16.1083 17.5411 16.0762 18.1883C16.0689 18.3337 16.0615 18.4827 16.0615 18.6297C16.0615 19.1336 16.8355 19.0197 16.9166 18.8862C17.0149 18.7242 17.0024 18.0848 16.9951 17.708C16.9935 17.6283 16.9922 17.5603 16.9922 17.5111C16.9922 16.9064 16.5673 16.3313 15.9456 16.1464C15.5029 16.0147 14.868 16.0323 14.2649 16.0491C14.0672 16.0545 13.8728 16.0599 13.6898 16.0599C13.5783 16.0599 13.4509 16.0578 13.314 16.0554C12.6862 16.0448 11.8578 16.0308 11.433 16.2058C10.8194 16.4587 10.5676 17.081 10.5676 17.753V17.753Z" stroke="#677294"/>
</svg>
