<svg width="19" height="19" viewBox="0 0 19 19" fill="none" xmlns="http://www.w3.org/2000/svg">
<path fill-rule="evenodd" clip-rule="evenodd" d="M7.18457 4.29685C6.96073 5.28194 5.92167 6.17295 4.6286 5.9095C3.60153 5.70023 2.69064 4.6106 2.98734 3.33037C3.20275 2.40088 4.29331 1.48327 5.54227 1.75175C6.52213 1.96237 7.4677 3.05091 7.18457 4.29685ZM4.84033 1.02142C0.886813 1.52654 1.70226 7.00187 5.38798 6.64146C7.92319 6.39354 8.81811 3.23882 6.94573 1.6932C6.46521 1.29654 5.66382 0.916208 4.84033 1.02142Z" fill="#60697B" stroke="#677294" stroke-miterlimit="22.9256"/>
<path fill-rule="evenodd" clip-rule="evenodd" d="M13.4798 1.72958C14.6788 1.54752 15.7086 2.55864 15.8273 3.58813C15.9717 4.84094 15.0349 5.80224 13.943 5.93411C12.668 6.08808 11.6861 5.13808 11.5591 4.05861C11.4069 2.76488 12.3642 1.89896 13.4798 1.72958V1.72958ZM13.4029 1.03166C9.3901 1.66768 10.4386 7.02787 14.0288 6.63753C15.4817 6.47956 16.7469 5.14129 16.5402 3.49637C16.3671 2.11936 15.0204 0.775284 13.4029 1.03166Z" fill="#60697B" stroke="#677294" stroke-miterlimit="22.9256"/>
<path fill-rule="evenodd" clip-rule="evenodd" d="M11.537 10.3912C11.3701 11.1342 11.2007 11.5065 10.7245 11.8463C10.2445 12.1888 9.59766 12.4379 8.84877 12.2456C8.20842 12.0812 7.7915 11.6878 7.52736 11.2324C7.2607 10.7726 7.08367 9.87302 7.40616 9.36846C7.46693 9.21601 7.52371 9.06471 7.60427 8.96325C7.64795 8.90826 7.68232 8.8806 7.74327 8.81896C7.84867 8.71235 7.77728 8.75735 7.90227 8.67206C8.2236 8.32877 8.96173 7.99705 9.67659 8.07933C10.1883 8.13825 10.5571 8.367 10.8793 8.69L11.1642 8.97428C11.1888 8.64402 11.1278 8.83732 11.2762 8.70204C11.3826 8.60497 11.4977 8.58758 11.6465 8.54905V9.02131C11.6691 9.02145 11.7345 9.02049 11.7542 9.0264C11.8941 9.06844 11.8489 9.04593 11.9345 9.11579V9.35203C11.8489 9.42189 11.9304 9.38789 11.7962 9.43804C11.7636 9.45023 11.6838 9.4463 11.6465 9.4463L11.6465 9.87176C11.9637 10.0562 11.9311 9.99339 11.9348 10.3912L11.537 10.3912ZM6.71876 9.1844C6.59493 9.5325 6.4739 9.83885 6.53572 10.2863C6.4394 12.4046 9.37148 13.967 11.238 12.3509C11.32 12.2798 11.5664 12.0433 11.6213 11.9733C11.8215 11.7175 12.0237 11.3875 12.1366 11.0164C12.3181 10.4199 12.1611 10.0849 12.2412 9.63653C12.2332 9.62663 12.2231 9.61326 12.2187 9.60567C12.2143 9.59807 12.2027 9.58333 12.1977 9.57372L12.0308 9.09229C11.6068 8.20872 10.7185 7.31486 9.34068 7.35978C8.09846 7.40027 6.97728 8.28575 6.71876 9.1844Z" fill="#60697B" stroke="#677294" stroke-miterlimit="22.9256"/>
<path fill-rule="evenodd" clip-rule="evenodd" d="M5.13322 17.956C5.32272 18.0147 5.77157 18.0442 5.81627 17.851C5.93814 17.3241 5.56015 15.9815 6.12327 15.445C6.52756 15.0598 6.97993 15.1332 7.61338 15.1336L11.2142 15.134C11.8318 15.1339 12.3628 15.1075 12.6885 15.4606C13.1829 15.9966 12.8403 17.5709 12.9681 17.8876C13.0254 18.0294 13.4912 18.0151 13.645 17.949L13.7097 17.7187C13.715 17.6542 13.713 17.5485 13.7143 17.4794C13.7339 16.408 13.8625 15.4902 12.9854 14.7908C12.2822 14.2301 10.4503 14.4289 9.38977 14.4215C8.71914 14.4168 8.04377 14.4148 7.37334 14.4247C6.70985 14.4345 6.23745 14.4565 5.79781 14.7945C4.97745 15.4252 5.05664 16.1328 5.05549 17.0537C5.05522 17.2814 5.01634 17.8106 5.13322 17.956Z" fill="#60697B" stroke="#677294" stroke-miterlimit="22.9256"/>
<path fill-rule="evenodd" clip-rule="evenodd" d="M4.4931 8.7884L4.82868 8.79082L5.3184 8.76923L5.64381 8.09141C4.97385 8.04414 4.2034 8.07841 3.53265 8.07841C2.78508 8.07841 2.26023 7.98924 1.66441 8.317C1.26981 8.53407 0.888984 8.9771 0.801068 9.54326C0.747586 9.88766 0.700187 11.2999 0.785733 11.574C0.938997 11.6566 1.31465 11.652 1.48157 11.5836C1.7386 10.8781 1.1678 9.68758 1.85147 9.06819C2.43546 8.53911 3.64397 8.85637 4.49309 8.78841L4.4931 8.7884Z" fill="#60697B" stroke="#677294" stroke-miterlimit="22.9256"/>
<path fill-rule="evenodd" clip-rule="evenodd" d="M14.1912 8.78604L14.5748 8.78409C15.4679 8.87181 16.3805 8.52633 16.9736 9.11767C17.4967 9.6393 17.1835 10.7933 17.2767 11.603L17.9876 11.6241C18.0524 11.211 18.0514 10.0256 17.9875 9.6289C17.8843 8.98815 17.5483 8.57399 17.1435 8.33566C16.5576 7.99074 16.0305 8.07751 15.2952 8.07793C14.599 8.07831 13.8315 8.04777 13.1443 8.0846L13.4394 8.76083L14.1912 8.78604Z" fill="#60697B" stroke="#677294" stroke-miterlimit="22.9256"/>
<mask id="path-7-inside-1_56_20" fill="white">
<path fill-rule="evenodd" clip-rule="evenodd" d="M11.1641 8.96775C11.3918 9.51594 11.4895 9.64486 11.5366 10.3883L11.9271 10.6379C11.9234 10.2326 12.2523 10.0408 11.9351 9.8529L11.735 9.56729C11.7722 9.56729 11.8261 9.52016 11.8587 9.50773C11.9929 9.45663 11.9519 9.4611 12.0376 9.38992L11.9341 9.08888C11.8485 9.01771 11.8937 9.04065 11.7538 8.99782C11.7341 8.99178 11.7537 8.88181 11.7311 8.88168L11.6598 8.5238C11.5111 8.56305 11.3822 8.56846 11.2758 8.66736C11.1274 8.80519 11.1887 8.63128 11.1641 8.96776L11.1641 8.96775Z"/>
</mask>
<path fill-rule="evenodd" clip-rule="evenodd" d="M11.1641 8.96775C11.3918 9.51594 11.4895 9.64486 11.5366 10.3883L11.9271 10.6379C11.9234 10.2326 12.2523 10.0408 11.9351 9.8529L11.735 9.56729C11.7722 9.56729 11.8261 9.52016 11.8587 9.50773C11.9929 9.45663 11.9519 9.4611 12.0376 9.38992L11.9341 9.08888C11.8485 9.01771 11.8937 9.04065 11.7538 8.99782C11.7341 8.99178 11.7537 8.88181 11.7311 8.88168L11.6598 8.5238C11.5111 8.56305 11.3822 8.56846 11.2758 8.66736C11.1274 8.80519 11.1887 8.63128 11.1641 8.96776L11.1641 8.96775Z" fill="#60697B"/>
<path d="M11.1641 8.96775L12.0876 8.58415L11.519 7.21541L10.4626 8.25501L11.1641 8.96775ZM11.5366 10.3883L10.5386 10.4515L10.5707 10.9576L10.9979 11.2308L11.5366 10.3883ZM11.9271 10.6379L11.3884 11.4805L12.9436 12.4748L12.927 10.6289L11.9271 10.6379ZM11.9351 9.8529L11.116 10.4266L11.2398 10.6033L11.4254 10.7133L11.9351 9.8529ZM11.735 9.56729V8.56729H9.81358L10.916 10.141L11.735 9.56729ZM11.8587 9.50773L11.5028 8.57321L11.5027 8.57326L11.8587 9.50773ZM12.0376 9.38992L12.6767 10.159L13.2077 9.71782L12.9833 9.06491L12.0376 9.38992ZM11.9341 9.08888L12.8798 8.76387L12.7887 8.49882L12.5732 8.31971L11.9341 9.08888ZM11.7538 8.99782L11.4607 9.9539L11.461 9.95398L11.7538 8.99782ZM11.7311 8.88168L10.7503 9.0769L10.9096 9.87699L11.7253 9.88166L11.7311 8.88168ZM11.6598 8.5238L12.6406 8.32858L12.433 7.28563L11.4047 7.55688L11.6598 8.5238ZM11.2758 8.66736L11.9564 9.4L11.9564 9.39996L11.2758 8.66736ZM11.1641 8.96776L10.1667 8.89477L9.97291 11.543L11.8655 9.68051L11.1641 8.96776ZM10.2406 9.35135C10.3802 9.68757 10.4216 9.76477 10.4612 9.89522C10.4886 9.98568 10.5175 10.1187 10.5386 10.4515L12.5346 10.3251C12.5086 9.91448 12.4651 9.6113 12.375 9.31439C12.297 9.05748 12.1756 8.79613 12.0876 8.58415L10.2406 9.35135ZM10.9979 11.2308L11.3884 11.4805L12.4657 9.79541L12.0753 9.54576L10.9979 11.2308ZM12.927 10.6289C12.9273 10.6547 12.8918 10.7863 12.994 10.4899C13.0271 10.394 13.1296 10.093 13.0319 9.73478C12.9237 9.3378 12.6447 9.11096 12.4447 8.99252L11.4254 10.7133C11.3841 10.6888 11.1829 10.5564 11.1024 10.2609C11.0661 10.1281 11.0703 10.015 11.08 9.94325C11.0847 9.90831 11.0909 9.88152 11.0952 9.86525C11.0994 9.84905 11.1029 9.83907 11.1033 9.83787C11.1037 9.83677 11.1027 9.83975 11.0986 9.85038C11.0938 9.86279 11.0898 9.87265 11.0811 9.89467C11.0665 9.93184 11.0431 9.99182 11.0205 10.0612C10.9734 10.206 10.9249 10.4052 10.9271 10.6469L12.927 10.6289ZM12.7541 9.27917L12.554 8.99356L10.916 10.141L11.116 10.4266L12.7541 9.27917ZM11.735 10.5673C11.9391 10.5673 12.0937 10.507 12.1584 10.4793C12.2327 10.4475 12.2904 10.4133 12.3136 10.3993C12.3272 10.3912 12.3392 10.3837 12.3441 10.3806C12.3515 10.376 12.35 10.377 12.3476 10.3784C12.3449 10.3801 12.3325 10.3875 12.3145 10.3971C12.2979 10.4059 12.2627 10.4239 12.2147 10.4422L11.5027 8.57326C11.4466 8.59463 11.4025 8.61688 11.3766 8.63066C11.3493 8.64515 11.327 8.65834 11.3141 8.66612C11.3015 8.67375 11.2894 8.68133 11.286 8.68347C11.2801 8.68715 11.2811 8.68648 11.2835 8.68501C11.2846 8.68437 11.3198 8.66271 11.3725 8.64016C11.4009 8.62805 11.4446 8.61118 11.5004 8.59681C11.5556 8.5826 11.6362 8.56729 11.735 8.56729V10.5673ZM12.2146 10.4423C12.2529 10.4277 12.3085 10.406 12.365 10.3788C12.4324 10.3464 12.5153 10.2996 12.6014 10.2289C12.6394 10.1976 12.6679 10.1699 12.6834 10.1545C12.6871 10.1509 12.7159 10.1217 12.7025 10.1352C12.6951 10.1427 12.6848 10.1523 12.6767 10.159L11.3985 8.62079C11.3744 8.64079 11.3523 8.66018 11.3317 8.67926C11.3109 8.69851 11.2943 8.71495 11.2822 8.7271C11.2771 8.7323 11.2721 8.73744 11.271 8.73853C11.2688 8.74079 11.2708 8.73866 11.274 8.73549C11.2812 8.72832 11.3019 8.708 11.3313 8.68385C11.3625 8.65823 11.3948 8.63532 11.4272 8.61535C11.4576 8.5966 11.4826 8.5839 11.4974 8.57676C11.505 8.57313 11.5108 8.57051 11.5143 8.56896C11.5178 8.5674 11.5198 8.56658 11.5199 8.56657C11.5199 8.56656 11.5186 8.56709 11.5156 8.56827C11.5126 8.56945 11.5084 8.57106 11.5028 8.57321L12.2146 10.4423ZM12.9833 9.06491L12.8798 8.76387L10.9884 9.41389L11.0919 9.71493L12.9833 9.06491ZM12.5732 8.31971C12.5543 8.304 12.5746 8.32071 12.5386 8.29C12.514 8.26902 12.4335 8.1998 12.3146 8.13986C12.216 8.09012 12.1248 8.0648 12.1139 8.06157C12.08 8.0515 12.0786 8.05144 12.0466 8.04165L11.461 9.95398C11.4834 9.96084 11.502 9.96635 11.5169 9.97071C11.5359 9.97629 11.5373 9.97667 11.544 9.97864C11.5491 9.98017 11.5366 9.97658 11.5181 9.9701C11.4971 9.96273 11.4595 9.94853 11.414 9.92559C11.312 9.87416 11.2449 9.81523 11.2403 9.8113C11.2388 9.81003 11.2383 9.8096 11.2412 9.81207C11.2431 9.8137 11.248 9.81799 11.2527 9.8221C11.2635 9.83143 11.2776 9.84354 11.2951 9.85805L12.5732 8.31971ZM12.0469 8.04174C12.2709 8.11041 12.4254 8.24277 12.5201 8.3569C12.6096 8.46478 12.6566 8.56805 12.6802 8.62877C12.7051 8.69299 12.7182 8.74704 12.7252 8.78029C12.7325 8.81528 12.7364 8.8439 12.7385 8.86233C12.7426 8.89726 12.7433 8.92274 12.7434 8.9267C12.7436 8.93111 12.7436 8.93571 12.7434 8.92323C12.7433 8.91635 12.7431 8.89475 12.7419 8.8703C12.7409 8.84827 12.7382 8.80024 12.729 8.74206C12.7242 8.71185 12.716 8.66813 12.7013 8.61691C12.6874 8.56816 12.6616 8.49109 12.6138 8.40423C12.5668 8.31892 12.4797 8.18972 12.3283 8.0781C12.2506 8.0208 12.1587 7.97034 12.0535 7.93475C11.948 7.89903 11.8408 7.88229 11.7368 7.88169L11.7253 9.88166C11.6228 9.88107 11.5169 9.86455 11.4126 9.82926C11.3086 9.7941 11.2179 9.74426 11.1413 9.68777C10.9922 9.57778 10.907 9.45096 10.8617 9.36868C10.8155 9.28485 10.7912 9.21147 10.7784 9.16694C10.765 9.11995 10.7578 9.081 10.7538 9.05601C10.7462 9.00825 10.7445 8.9724 10.7441 8.96348C10.7436 8.95214 10.7435 8.94459 10.7436 8.95184C10.7437 8.95349 10.7439 8.97232 10.7444 8.9902C10.745 9.00764 10.7464 9.04587 10.7518 9.09196C10.7545 9.11596 10.7592 9.14977 10.7675 9.18944C10.7754 9.22739 10.7897 9.28562 10.8161 9.35343C10.8411 9.41773 10.8896 9.52398 10.981 9.63414C11.0777 9.75054 11.2342 9.88446 11.4607 9.9539L12.0469 8.04174ZM12.7118 8.68646L12.6406 8.32858L10.6791 8.71902L10.7503 9.0769L12.7118 8.68646ZM11.4047 7.55688C11.3927 7.56006 11.38 7.56289 11.3386 7.57192C11.3061 7.57902 11.2418 7.59293 11.173 7.6129C11.0203 7.65725 10.8017 7.74285 10.5951 7.93476L11.9564 9.39996C11.9104 9.44275 11.8613 9.47543 11.8153 9.49896C11.7719 9.52113 11.7394 9.53106 11.7309 9.53352C11.7266 9.53476 11.7263 9.5347 11.7326 9.53321C11.7394 9.53158 11.7485 9.52955 11.7654 9.52584C11.7799 9.52268 11.8036 9.51755 11.8273 9.51216C11.8522 9.50648 11.882 9.49939 11.9149 9.49072L11.4047 7.55688ZM10.5952 7.93472C10.6153 7.91604 10.6601 7.87962 10.7257 7.84435C10.7359 7.83883 10.7456 7.83402 10.7391 7.83728C10.7375 7.83809 10.7288 7.84245 10.7186 7.84787C10.7081 7.8534 10.6894 7.86345 10.6669 7.87698C10.6235 7.90301 10.5404 7.95679 10.455 8.04591C10.3617 8.14314 10.2916 8.25485 10.2447 8.37258C10.1694 8.5613 10.1715 8.73242 10.1714 8.73575C10.1709 8.75528 10.171 8.77275 10.171 8.77878C10.171 8.7891 10.1711 8.79072 10.171 8.79713C10.171 8.80915 10.1709 8.83723 10.1667 8.89477L12.1614 9.04075C12.1695 8.93005 12.171 8.85369 12.171 8.79938C12.1711 8.7892 12.171 8.77663 12.171 8.77472C12.171 8.76852 12.1711 8.77576 12.1708 8.78663C12.1706 8.79575 12.1696 8.8309 12.1638 8.87704C12.1578 8.9234 12.1434 9.01059 12.1024 9.11355C12.057 9.22733 11.989 9.33587 11.8984 9.43029C11.8156 9.51661 11.7358 9.56796 11.6966 9.59154C11.6616 9.61255 11.6308 9.62753 11.639 9.62339C11.6391 9.62334 11.6392 9.6233 11.6398 9.62303C11.6402 9.62281 11.6409 9.62245 11.6417 9.62203C11.6434 9.6212 11.6459 9.61993 11.6489 9.61841C11.6549 9.61531 11.6631 9.61106 11.6727 9.6059C11.7693 9.55397 11.8621 9.4876 11.9564 9.4L10.5952 7.93472ZM11.8655 9.68051L11.8655 9.6805L10.4626 8.25501L10.4626 8.25502L11.8655 9.68051Z" fill="#677294" mask="url(#path-7-inside-1_56_20)"/>
</svg>
