<svg width="23" height="19" viewBox="0 0 23 19" fill="none" xmlns="http://www.w3.org/2000/svg">
<path d="M5.90105 5.9C7.38115 5.9 8.56822 4.68405 8.56822 3.2C8.56822 1.71595 7.38115 0.5 5.90105 0.5C4.42095 0.5 3.23389 1.71595 3.23389 3.2C3.23389 4.68405 4.42095 5.9 5.90105 5.9Z" stroke="#677294"/>
<path d="M18.9045 17.6324C20.3846 17.6324 21.5716 16.4165 21.5716 14.9324C21.5716 13.4484 20.3846 12.2324 18.9045 12.2324C17.4244 12.2324 16.2373 13.4484 16.2373 14.9324C16.2373 16.4165 17.4244 17.6324 18.9045 17.6324Z" stroke="#677294"/>
<rect x="1.34375" y="14.6992" width="9.11343" height="1.93333" fill="#677294" stroke="#677294"/>
<rect x="12.9019" y="2.9668" width="9.11343" height="1.93333" fill="#677294" stroke="#677294"/>
</svg>
