<svg width="132" height="131" viewBox="0 0 132 131" fill="none" xmlns="http://www.w3.org/2000/svg">
<g clip-path="url(#clip0_1_848)">
<path fill-rule="evenodd" clip-rule="evenodd" d="M64.2686 11.4367C68.1248 10.4737 70.2811 12.679 73.8358 15.0363L114.828 42.2191C117.557 44.0285 120.005 45.9602 120.578 50.0935C120.822 51.8554 120.635 103.229 120.635 111.2C120.635 119.602 121.631 119.795 115.612 119.794H95.1155C90.648 119.794 15.036 119.977 13.342 119.767C10.9849 119.474 11.3212 117.251 11.3218 114.997L11.3219 53.8357C11.3218 51.1927 11.1501 50.1605 12.064 47.7816C12.6338 46.2983 13.937 44.4173 14.8304 43.7362L55.8307 16.5552C57.7936 15.2535 62.2651 11.9371 64.2686 11.4367ZM63.3912 0.194728C58.4437 0.881683 55.5602 3.21775 52.2544 5.40993L12.7085 31.6335C8.85069 34.1915 6.41906 35.6195 3.94393 39.3053C1.56774 42.8436 0.0579043 46.5655 0.0681216 51.8369C0.110306 73.6075 -0.100717 95.7013 0.0663007 117.397C0.106867 122.669 2.69661 126.286 5.52631 128.358C9.59159 131.335 13.5431 130.987 19.3598 130.987L118.024 130.99C123.45 130.975 127.002 128.486 129.159 125.673C132.183 121.727 131.888 117.82 131.888 111.999V62.8301C131.888 52.1762 133.369 44.4009 125.582 36.3253C123.238 33.8948 109.935 25.457 106.107 22.919L76.4487 3.25066C72.9458 0.92495 68.7671 -0.551696 63.3913 0.194728H63.3912Z" fill="#677294"/>
<path fill-rule="evenodd" clip-rule="evenodd" d="M102.053 76.0221C102.447 72.6901 102.431 70.8438 100.42 68.9444C98.7444 67.3627 95.9453 66.8196 93.6989 68.2201C91.5102 69.5845 91.1936 71.2489 90.9076 74.4265C89.8184 86.5318 82.9199 96.1548 69.014 97.2846C63.6389 97.7213 57.9501 96.9872 53.595 94.9265C47.4142 92.002 43.6863 86.1194 41.9902 79.6876C40.8971 75.5426 41.2644 73.8676 40.833 71.8547C39.728 66.6993 32.7109 65.9455 30.3729 70.3991C28.5979 73.7807 30.9218 82.2204 32.0476 85.5826C36.6948 99.4618 47.8964 107.562 62.8032 108.507C85.5992 109.952 99.6134 96.6296 102.053 76.0221H102.053Z" fill="#677294"/>
</g>
<defs>
<clipPath id="clip0_1_848">
<rect width="132" height="131" fill="white"/>
</clipPath>
</defs>
</svg>
