<svg width="115" height="124" viewBox="0 0 115 124" fill="none" xmlns="http://www.w3.org/2000/svg">
<g clip-path="url(#clip0_1_904)">
<path fill-rule="evenodd" clip-rule="evenodd" d="M6.5885 108.937V64.0392C6.5885 60.4072 10.7292 55.9286 15.8723 55.9286H99.1274C104.091 55.9286 108.411 60.194 108.411 64.0392V108.937C108.411 111.549 106.853 114.008 105.335 115.231C103.545 116.674 101.38 117.627 98.2289 117.627H16.7707C13.6194 117.627 11.4545 116.674 9.66446 115.231C8.14651 114.007 6.5885 111.549 6.5885 108.937ZM0 64.3288V109.227C0 115.612 4.8454 121.023 10.8883 123.027C13.137 123.773 15.3693 124 18.2681 124H96.7316C102.563 124 106.058 122.818 109.36 120.284C111.828 118.391 115 113.696 115 109.517V64.3292C115 56.5704 107.655 49.5563 98.8279 49.5563H16.1718C7.36029 49.5563 0 56.5536 0 64.3292L0 64.3288Z" fill="#ED802D"/>
<path fill-rule="evenodd" clip-rule="evenodd" d="M19.167 18.5616C19.167 21.5423 21.6361 22.248 23.1093 21.8225C26.3003 20.9009 34.5825 6.39566 57.5001 6.39566C80.4448 6.39566 88.7183 20.9061 91.8913 21.8225C93.7975 22.3733 101.037 20.0689 89.3396 10.9389C81.4911 4.81298 71.166 0.571664 60.7918 0.315154C59.263 0.277463 59.101 -0.000335693 57.5005 -0.000335693C55.8999 -0.000335693 55.7379 0.277463 54.2091 0.315154C52.6186 0.35459 52.1564 0.437302 50.8856 0.57655C41.5665 1.59701 32.76 5.39824 25.6613 10.9385C24.0651 12.1844 19.1674 16.3667 19.1674 18.5612L19.167 18.5616Z" fill="#ED802D"/>
<path fill-rule="evenodd" clip-rule="evenodd" d="M31.7445 25.2242C31.7445 26.7144 34.4409 30.0511 37.8084 26.7444C41.164 23.4499 45.5093 21.1148 50.1335 19.8374C56.3911 18.1092 64.9533 18.8016 70.2544 21.8668C72.7145 23.2893 75.015 24.6644 77.0435 26.5971C78.0801 27.5847 78.1985 28.1208 79.9604 28.1208C82.7765 28.1208 84.5279 24.544 81.675 22.1174L78.5954 19.5921C69.9647 13.3678 60.4301 10.8467 49.0521 13.5776C44.1988 14.7425 35.2343 19.0697 32.3936 23.245C32.0425 23.7608 31.7441 24.4312 31.7441 25.2238L31.7445 25.2242Z" fill="#ED802D"/>
<path fill-rule="evenodd" clip-rule="evenodd" d="M44.6218 38.2591C46.1402 38.2591 54.3798 31.4785 65.078 35.8531C66.3906 36.3899 69.2064 38.2591 70.3769 38.2591C71.94 38.2591 76.9705 34.87 70.1734 31.2139C57.2374 24.2564 41.9944 30.6032 41.4398 34.596C41.21 36.2499 42.9191 38.2591 44.6215 38.2591H44.6218Z" fill="#ED802D"/>
</g>
<defs>
<clipPath id="clip0_1_904">
<rect width="115" height="124" fill="white"/>
</clipPath>
</defs>
</svg>
