<svg width="22" height="15" viewBox="0 0 22 15" fill="none" xmlns="http://www.w3.org/2000/svg">
<mask id="mask0_1_11" style="mask-type:luminance" maskUnits="userSpaceOnUse" x="0" y="0" width="22" height="15">
<path d="M21.549 0H0V14.411H21.549V0Z" fill="white"/>
</mask>
<g mask="url(#mask0_1_11)">
<path d="M20.1355 2.47833H1.41357C0.628253 2.47833 0 1.91841 0 1.23917C0 0.55992 0.628253 0 1.41357 0H20.1355C20.9208 0 21.549 0.550741 21.549 1.23917C21.549 1.9276 20.9208 2.47833 20.1355 2.47833Z" fill="#5C5C5C"/>
<path d="M13.3294 8.44548H1.41357C0.628253 8.44548 0 7.88555 0 7.20631C0 6.52707 0.628253 5.96715 1.41357 5.96715H13.3294C14.1147 5.96715 14.7429 6.51789 14.7429 7.20631C14.7429 7.89474 14.1147 8.44548 13.3294 8.44548Z" fill="#5C5C5C"/>
<path d="M6.52336 14.4116H1.41357C0.628253 14.4116 0 13.8516 0 13.1725C0 12.4932 0.628253 11.9332 1.41357 11.9332H6.52336C7.30867 11.9332 7.93692 12.484 7.93692 13.1725C7.93692 13.8609 7.30867 14.4116 6.52336 14.4116Z" fill="#5C5C5C"/>
</g>
</svg>
