<svg width="11" height="11" viewBox="0 0 11 11" fill="none" xmlns="http://www.w3.org/2000/svg">
<path d="M8.57902 0.958153C8.72389 0.663817 8.61585 0.320067 8.31875 0.131005C8.02165 -0.0580576 7.61652 -0.0408701 7.33906 0.169677L1.05335 4.98218C0.807815 5.17124 0.719422 5.47417 0.834823 5.74058C0.950225 6.00698 1.24487 6.18745 1.57143 6.18745H4.30915L2.42098 10.0417C2.27612 10.3361 2.38415 10.6798 2.68125 10.8689C2.97835 11.058 3.38348 11.0408 3.66094 10.8302L9.94665 6.01772C10.1922 5.82866 10.2806 5.52573 10.1652 5.25933C10.0498 4.99292 9.75759 4.8146 9.42857 4.8146H6.69085L8.57902 0.958153Z" fill="#1FBA48"/>
</svg>
