<svg width="128" height="128" viewBox="0 0 128 128" fill="none" xmlns="http://www.w3.org/2000/svg">
<path fill-rule="evenodd" clip-rule="evenodd" d="M59.6864 6.79854H68.3135C69.6759 6.79854 70.5961 7.06244 71.4672 7.58334C72.1692 8.00318 73.0303 8.90301 73.4195 9.63201C74.6367 11.912 73.6229 14.7723 74.4398 17.4889C74.9993 19.3499 76.2418 20.9573 77.7703 22.0979C79.1899 23.1573 81.1191 23.8652 83.0046 23.8652C84.5577 23.8652 85.8886 23.5801 87.2104 22.9447C89.0769 22.0475 90.3463 20.3256 91.8341 18.9413C92.2674 18.5381 92.912 18.1829 93.4853 17.9043C94.6838 17.322 96.6606 17.3218 97.938 17.809C99.2783 18.32 99.9365 19.073 100.931 20.0674C101.86 20.9969 106.396 25.4257 106.895 26.0434C108.033 27.451 108.378 29.434 107.638 31.1191C107.58 31.2497 107.563 31.3302 107.485 31.4669C107.053 32.2318 106.448 32.8268 105.837 33.4444C105.489 33.7961 105.21 34.193 104.934 34.6047L104.176 35.9098C102.56 39.1413 102.607 42.8206 103.937 46.1304C104.247 46.9011 104.685 47.6878 105.122 48.3841C106.582 50.7089 108.924 52.4966 111.519 53.3647C112.08 53.5523 112.687 53.7187 113.327 53.8072C115.965 54.1722 118.115 53.4376 120.13 56.1313C120.8 57.0261 121.201 58.0754 121.201 59.6239V68.251C121.201 70.3163 120.686 71.3465 119.373 72.6745C117.211 74.8622 114.275 73.5891 111.662 74.3403C110.813 74.5844 110.132 74.8478 109.406 75.2103C108.732 75.547 108.112 76.0179 107.536 76.466C107.367 76.5973 107.3 76.7013 107.145 76.8246C106.6 77.2552 105.68 78.3867 105.342 78.9606C104.733 79.9931 104.212 81.0281 103.912 82.219C103.263 84.7978 103.536 87.5918 104.759 89.9447C105.048 90.4997 105.624 91.3467 106.057 91.7727L107.556 93.3991C108.627 94.8329 108.552 97.3072 107.276 98.5863L106.12 99.8056C104.82 101.105 99.2778 106.799 98.2507 107.566C96.9682 108.522 94.7314 108.543 93.4346 107.583C92.1147 106.606 92.3365 106.2 89.9705 104.796C89.2753 104.383 88.5929 104.156 87.7298 103.911C86.8924 103.672 86.0684 103.596 85.0406 103.555C84.1476 103.52 83.1251 103.699 82.3293 103.897C80.669 104.31 78.9719 105.102 77.7057 106.275C76.6874 107.219 75.9952 108.088 75.2791 109.287C74.3952 110.768 74.0649 112.509 74.0649 114.325C74.065 115.451 74.1114 116.344 73.8657 117.251C73.6647 117.993 73.2512 118.781 72.769 119.28C72.5374 119.52 72.2326 119.851 71.9765 120.051C71.7146 120.255 71.3331 120.522 71.0207 120.658C70.279 120.98 69.4779 121.201 68.4386 121.201H59.5614C58.0789 121.201 56.9885 120.772 56.1313 120.13C55.3441 119.541 54.5126 118.522 54.1984 117.5C54.0107 116.889 53.934 116.295 53.935 115.513C53.938 113.106 53.4781 111.152 52.2901 109.155C51.7252 108.206 51.0321 107.398 50.2625 106.619C50.0445 106.399 49.8831 106.301 49.6687 106.088C49.4871 105.907 49.2551 105.735 49.0505 105.581C46.79 103.878 44.0494 102.947 41.1194 102.947C38.6218 102.947 36.1043 103.853 34.6441 104.911L32.382 106.838C30.8987 108.171 28.4545 108.374 26.7429 107.384C25.7603 106.815 23.0624 103.926 22.1616 103.025C21.0461 101.91 19.3909 100.414 18.5063 99.2412C18.3808 99.0748 18.3186 98.9775 18.2111 98.7861C17.3862 97.317 17.2316 95.4389 17.7604 93.8415C18.017 93.0662 18.5132 92.2664 19.0659 91.7087C20.4419 90.3202 21.9166 89.0683 22.885 87.3382C24.8997 83.7388 23.7259 78.8182 20.6583 76.2091C15.3764 71.7168 10.9293 76.5574 7.58506 71.4655C7.05751 70.6622 6.79852 69.5559 6.79852 68.251V59.6239C6.79852 58.25 7.11998 57.2124 7.68534 56.3847C9.96074 53.0538 12.7273 54.2792 15.4545 53.8389C21.6381 52.8405 25.6571 46.3275 24.1165 40.368C23.5629 38.2267 22.4709 36.6931 20.9739 35.1961C19.3727 33.5949 18.0487 32.4788 17.7547 30.1007C17.5895 28.7645 17.8164 27.5022 18.2389 26.5534C18.4466 26.0869 18.6969 25.6261 18.9887 25.2403C19.5962 24.437 24.5764 19.4864 25.2047 19.0157C27.4254 17.3519 30.7311 17.2429 33.0555 18.926C34.0769 19.6655 34.9808 20.8122 35.9458 21.662C36.4309 22.0893 36.8742 22.5261 37.4338 22.8621C40.0129 24.4107 42.7716 24.8243 45.7706 24.0778C48.1969 23.4739 50.5322 21.9601 51.9601 19.8898C52.5612 19.0182 53.0595 18.1566 53.3962 17.1374C54.5936 13.5125 53.0614 10.877 55.2938 8.65745C56.5753 7.38338 57.5159 6.79854 59.6864 6.79854V6.79854ZM42.9948 17.6762C41.4945 17.6762 40.7383 16.8887 39.791 15.9414C38.9505 15.1009 38.1302 14.2633 37.181 13.5501C36.7136 13.1989 36.2084 12.8648 35.66 12.5705C33.9962 11.6775 31.7606 10.9245 29.8041 10.9245C27.9021 10.9245 26.6392 11.0313 24.9199 11.6042C23.7962 11.9787 22.8393 12.4581 21.9149 13.0378C20.1721 14.1309 18.6845 15.8239 17.2542 17.2542C16.4359 18.0725 15.6003 18.8429 14.8153 19.6915C14.6906 19.8264 14.683 19.8711 14.5656 20.0044C14.0289 20.6134 13.5058 21.1824 13.062 21.8767C11.8308 23.8028 10.9245 26.2381 10.9245 28.6164C10.9245 30.7847 11.0838 31.9025 11.7598 33.9076C11.9561 34.49 12.2847 35.111 12.5491 35.6189C12.8207 36.1406 13.1681 36.674 13.5233 37.1453C13.6207 37.2746 13.664 37.3412 13.7635 37.4678C13.8782 37.6137 13.9442 37.6691 14.0502 37.8062L14.6273 38.4794C15.2111 39.0694 16.7206 40.4145 17.0878 41.0201C18.4737 43.3063 17.099 46.0455 15.32 46.8277C13.3969 47.6733 11.0341 46.3274 6.54841 48.5587C5.47368 49.0933 4.10043 50.077 3.31611 51.0153C3.19965 51.1546 3.1997 51.1863 3.06394 51.3257C2.04196 52.3752 1.19792 53.887 0.710344 55.2862C0.374676 56.2495 0.046875 57.5529 0.046875 58.8112V69.1888C0.046875 70.6699 0.375367 71.9126 0.867528 73.1193C1.48973 74.6448 2.40745 76.0735 3.56278 77.2382C4.1665 77.8468 4.99007 78.5333 5.71548 78.9614C7.5215 80.0275 9.30411 80.7986 11.5518 80.8145C11.9116 80.8171 12.0232 80.8822 12.4234 80.8806C13.4057 80.8766 15.3286 80.682 15.9982 81.1817C16.0981 81.2562 16.1598 81.3121 16.276 81.4041C17.2909 82.2072 17.3556 84.0575 16.2659 84.9077C15.5385 85.4753 13.5485 87.5927 13.0121 88.4055C12.5615 89.0882 12.1076 89.7955 11.7814 90.5507C11.4205 91.3863 11.1804 92.1829 10.9489 93.094C10.6767 94.1657 10.6745 95.3946 10.6745 96.5079C10.6745 97.8874 11.0984 99.2166 11.4536 100.292C11.7258 101.117 12.1158 101.88 12.5871 102.597C13.4585 103.923 14.0838 104.575 15.2225 105.713L19.8173 110.308C20.2966 110.787 20.738 111.309 21.258 111.743C21.3973 111.86 21.4291 111.86 21.5685 111.995C22.3272 112.734 23.4222 113.38 24.401 113.789C25.9187 114.423 27.4821 114.825 29.179 114.825C30.9227 114.825 32.8411 114.376 34.264 113.658C35.2942 113.139 36.2123 112.533 37.0711 111.777C37.8692 111.074 38.1281 110.608 39.1814 110.136C39.8181 109.851 40.7736 109.761 41.557 109.761C42.9725 109.761 44.5386 110.531 45.3853 111.372L45.9414 111.941C46.744 112.957 47.1218 113.79 47.1209 115.2C47.1196 117.253 47.4724 118.968 48.2095 120.738C48.4117 121.223 48.6946 121.741 48.9601 122.175C49.5137 123.08 50.1751 123.841 50.9184 124.593C51.6516 125.335 52.5688 125.967 53.4773 126.473C54.9909 127.316 56.8024 127.953 58.6862 127.953H69.3138C71.7687 127.953 74.1997 126.846 76.1012 125.426C76.7358 124.952 77.1778 124.474 77.7057 123.904C77.9026 123.692 78.0025 123.623 78.1827 123.381C78.3415 123.168 78.4735 122.969 78.6286 122.764C78.9134 122.388 79.2232 121.893 79.4417 121.452C81.9721 116.35 79.976 114.246 81.5037 112.136C81.6132 111.985 81.8454 111.684 81.9883 111.558C83.6285 110.116 85.9955 109.83 87.6153 111.465C88.0846 111.938 88.5557 112.395 89.0953 112.798C89.3064 112.955 89.4519 113.079 89.6675 113.226C90.4517 113.758 91.3071 114.17 92.2182 114.489C94.7254 115.365 97.6127 115.239 100.019 114.272C100.808 113.955 101.588 113.528 102.259 113.011C104.04 111.64 106.065 109.425 107.651 107.839C108.8 106.69 112.519 103.192 113.329 101.826C113.469 101.591 113.639 101.336 113.772 101.081C115.472 97.8175 115.547 94.1076 113.887 90.8188C113.266 89.5877 112.433 88.5827 111.465 87.6151C111.295 87.4459 111.142 87.319 111.01 87.1324C110.913 86.9969 110.741 86.718 110.662 86.5424C109.768 84.5625 110.851 82.0643 112.676 81.1688C113.288 80.8686 113.643 80.8791 114.512 80.8791C117.283 80.8792 119.098 80.6126 121.452 79.4418C122.515 78.9127 123.601 78.0807 124.437 77.2382C124.968 76.7031 125.451 76.1183 125.878 75.4912C126.156 75.0843 126.418 74.6336 126.641 74.1903C127.424 72.6308 127.953 71.1033 127.953 69.1888V58.8112C127.953 57.1706 127.553 55.6924 126.91 54.415C126.772 54.1401 126.697 53.9192 126.558 53.6424C125.844 52.2255 124.761 50.9762 123.558 49.9531C123.373 49.7956 123.138 49.6282 122.951 49.4969C118.224 46.1769 115.372 47.6709 113.368 46.8275C113.07 46.702 112.928 46.6302 112.674 46.4582C112.535 46.3633 112.45 46.3229 112.327 46.2432C110.877 45.3041 109.761 43.2731 109.761 41.557C109.761 38.4505 110.858 38.2255 112.431 36.287C112.594 36.0855 112.712 35.8795 112.862 35.6555C115.563 31.6089 115.426 26.0924 112.557 22.257C111.456 20.7853 107.197 16.706 105.745 15.2537C104.962 14.4712 104.226 13.6887 103.322 13.0502C102.379 12.3848 101.413 11.8399 100.282 11.4636C98.3828 10.8314 97.4196 10.6745 95.3827 10.6745C93.9817 10.6745 92.6266 11.0411 91.5456 11.4011C89.2949 12.1505 87.7021 13.4476 86.0835 15.0662C85.7043 15.4454 85.3151 15.8007 84.9576 16.1908C84.3644 16.838 84.0329 17.051 83.0671 17.051C82.4997 17.051 82.026 16.7926 81.6905 16.5522C80.6364 15.7967 80.8791 14.6862 80.8791 13.4877C80.8791 10.3962 80.5107 7.70944 78.5843 5.15491C78.4247 4.94332 78.3252 4.78694 78.1658 4.57308L77.2376 3.56335C75.8898 2.21899 74.26 1.2291 72.4319 0.617201C71.5669 0.327678 70.2568 0.0468903 69.1262 0.0468903H58.9362C55.3188 0.0468903 51.8868 1.9718 49.8715 4.54799C49.788 4.65477 49.7365 4.7053 49.6475 4.82406C46.0669 9.6038 47.6649 13.3633 46.8902 15.195C46.7281 15.5783 46.5135 15.8377 46.265 16.1327L45.4088 16.9018C44.9758 17.1919 44.4476 17.4227 43.9353 17.5539C43.7519 17.6009 43.2178 17.6762 42.9948 17.6762Z" fill="#677294" stroke="#677294" stroke-width="4" stroke-miterlimit="22.9256"/>
<path fill-rule="evenodd" clip-rule="evenodd" d="M64.1874 80.8166C60.2677 80.8166 56.2046 79.4314 53.3284 76.9845L51.2281 74.8964C51.0532 74.6896 50.9073 74.5354 50.738 74.3236C49.3412 72.577 48.1686 70.1299 47.6585 67.9009C46.8252 64.2605 47.1297 60.3552 48.642 57.2067C49.6665 55.0739 49.754 54.9346 51.256 53.069L53.1035 51.2282C53.3103 51.0533 53.4645 50.9074 53.6762 50.7381C53.8866 50.57 54.0717 50.4569 54.2924 50.2916C55.2659 49.5624 57.1983 48.5513 58.3963 48.1439C58.9611 47.9519 59.4486 47.8222 60.0487 47.6708C64.6467 46.5104 69.8168 47.5232 73.5645 50.1843C73.9485 50.4571 74.425 50.7791 74.7682 51.1062C75.188 51.5064 75.7634 51.9355 76.1185 52.3815C76.6656 53.0684 77.0178 53.2326 77.7911 54.3973C79.7134 57.2926 80.8165 60.436 80.8165 64C80.8165 67.0977 79.7012 71.0438 77.8334 73.52L75.9564 75.8315C75.5857 76.2545 74.1353 77.3884 73.6722 77.7358C71.1748 79.6089 67.34 80.8166 64.1874 80.8166ZM40.4316 63.4374C40.4316 66.0886 40.5162 67.0536 41.0832 69.6625C41.2968 70.6456 41.779 71.963 42.1553 72.9039C42.3097 73.29 42.4287 73.5386 42.5835 73.9135C42.7349 74.2801 42.8948 74.5316 43.0773 74.8576C43.5792 75.7542 43.5058 75.7717 44.1201 76.6906C44.7685 77.6606 45.0996 78.2051 45.9469 79.1773L46.6055 79.9565C47.9972 81.5369 50.3281 83.3217 52.1579 84.4066C55.3774 86.3155 59.5938 87.5682 63.3747 87.5682C64.8815 87.5682 65.9 87.578 67.4125 87.355C70.3454 86.9226 73.346 85.8864 75.8419 84.4066L77.5912 83.2802C77.8975 83.068 78.1232 82.8935 78.4139 82.665L79.5831 81.7087C80.5301 80.7964 81.5573 79.9061 82.3708 78.8076C82.4877 78.6499 82.5803 78.5369 82.7002 78.3867L84.1558 76.279C84.2737 76.1002 84.324 75.9795 84.4304 75.8034C84.6241 75.4828 84.7364 75.1901 84.9225 74.8576C85.6896 73.4871 86.5633 71.2158 86.906 69.7144C87.8207 65.7063 87.7867 62.3553 86.917 58.3371C86.7602 57.6122 86.1494 55.8526 85.8447 55.0959L84.4013 52.1632C83.7439 50.9593 82.8756 49.8472 82.024 48.7891C81.7787 48.4843 81.5853 48.3237 81.3528 48.0225C80.9463 47.496 79.9227 46.6318 79.519 46.2304C77.9476 44.6677 74.7807 42.9001 72.779 42.0927C72.4272 41.9508 72.0875 41.8269 71.729 41.7049C67.0929 40.1267 62.128 40.0039 57.4087 41.3424C56.9682 41.4673 56.744 41.5706 56.3343 41.7059C55.937 41.8371 55.6515 41.945 55.2711 42.0805L53.2464 42.9941C53.078 43.0817 52.9789 43.1581 52.8105 43.2458C52.6457 43.3315 52.4736 43.4085 52.3087 43.4942C51.418 43.9571 49.7254 45.1978 48.9193 45.8562C48.4462 46.2427 47.0941 47.4971 46.668 47.981C46.532 48.1354 46.5115 48.2011 46.3559 48.3565C46.1871 48.5252 46.1488 48.5704 46.0036 48.7544C45.4618 49.4407 44.6435 50.4429 44.1621 51.2265C43.7911 51.8305 42.8557 53.4467 42.6016 54.042C42.303 54.7415 42.0381 55.3463 41.7839 56.1001C41.5403 56.8226 41.2752 57.4904 41.0938 58.2856C40.744 59.8186 40.4316 61.6027 40.4316 63.4374L40.4316 63.4374Z" fill="#677294" stroke="#677294" stroke-width="4" stroke-miterlimit="22.9256"/>
</svg>
