<svg width="18" height="18" viewBox="0 0 18 18" fill="none" xmlns="http://www.w3.org/2000/svg">
<path d="M9.75 3.80317C12.2942 4.16709 14.25 6.35515 14.25 9C14.25 11.8995 11.8995 14.25 9 14.25C6.10051 14.25 3.75 11.8995 3.75 9C3.75 7.47119 4.40346 6.09502 5.44631 5.13554L4.38493 4.07416C3.07096 5.30572 2.25 7.05699 2.25 9C2.25 12.728 5.27208 15.75 9 15.75C12.728 15.75 15.75 12.728 15.75 9C15.75 5.27208 12.728 2.25 9 2.25C8.7465 2.25 8.49622 2.26397 8.25 2.2912V6.81413H9.75V3.80317Z" fill="#464646"/>
<path d="M5.78034 6.53031C5.48744 6.8232 5.48744 7.29808 5.78034 7.59098L7.90163 9.71228C8.19458 10.0052 8.66941 10.0052 8.96229 9.71228C9.25524 9.4194 9.25524 8.9445 8.96229 8.65163L6.841 6.53031C6.54811 6.23741 6.07323 6.23741 5.78034 6.53031Z" fill="#464646"/>
</svg>
