<?xml version="1.0" encoding="UTF-8"?>
<!DOCTYPE svg PUBLIC "-//W3C//DTD SVG 1.1//EN" "http://www.w3.org/Graphics/SVG/1.1/DTD/svg11.dtd">
<!-- Creator: CorelDRAW 2021 (64-Bit) -->
<svg xmlns="http://www.w3.org/2000/svg" xml:space="preserve" width="89.1134mm" height="81.3943mm" version="1.1" style="shape-rendering:geometricPrecision; text-rendering:geometricPrecision; image-rendering:optimizeQuality; fill-rule:evenodd; clip-rule:evenodd"
viewBox="0 0 6406.58 5851.63"
 xmlns:xlink="http://www.w3.org/1999/xlink"
 xmlns:xodm="http://www.corel.com/coreldraw/odm/2003">
 <defs>
  <style type="text/css">
   <![CDATA[
    .fil0 {fill:black}
   ]]>
  </style>
 </defs>
 <g id="Layer_x0020_1">
  <metadata id="CorelCorpID_0Corel-Layer"/>
  <g id="_2207756084384">
   <path class="fil0" d="M5498.56 5498.56l-4590.53 0c-255.01,0 -504.48,-182.02 -504.48,-454.02l0 -2824.95c0,-272.05 249.47,-454.01 504.48,-454.01l4489.6 0c325.67,0 605.35,188.81 605.35,504.42l0 2724.07c0,253.64 -250.84,504.48 -504.42,504.48zm-605.35 -4540.12l0 454.01 -2861.71 -87.23 1463.74 -604.46c150.38,-59.88 262.69,-108.02 390.38,-164.56 91.34,-40.45 331.09,-151.58 433.51,-175.47 351.42,-82.17 574.08,226.41 574.08,577.71zm-4893.21 1362.03l0 2623.15c0,481.66 370.9,908.02 857.56,908.02l4741.87 0c463.84,0 807.15,-495.9 807.15,-1059.36l0 -2320.46c0,-287.18 -84.07,-543.8 -198.52,-709.5 -262.76,-380.43 -624.48,-349.86 -961.77,-349.86l0 -655.75c0,-338.72 -344.68,-756.69 -907.97,-756.69 -133.46,0 -1016.29,383.7 -1204.08,460.63 -315.96,129.53 -2083.28,890.5 -2373.32,956.05 -439.53,99.32 -760.92,401.16 -760.92,903.79z"/>
   <path class="fil0" d="M4388.72 3581.63c0,277.3 74.19,201.74 857.56,201.74 153.3,0 171.3,-87.46 201.8,-201.74 -153.48,-229.21 -225.4,-151.33 -908.02,-151.33 -116.24,0 -151.34,35.09 -151.34,151.33z"/>
  </g>
 </g>
</svg>
